<svg xmlns="http://www.w3.org/2000/svg" viewBox="0 0 1200 420"><rect width="100%" height="100%" fill="white"/><text x="600.0" y="22" text-anchor="middle" font-family="Arial" font-size="18" font-weight="bold">VIT-SCRATCH-5SEEDS — Training Curves</text><text x="144.0" y="42" text-anchor="middle" font-family="Arial" font-size="12" font-weight="bold">Seed 42</text><rect x="35.0" y="50" width="218.0" height="145" fill="none" stroke="#ddd"/><polyline points="35.0,154.1 45.4,127.7 55.8,116.7 66.1,101.3 76.5,95.6 86.9,91.9 97.3,84.9 107.7,82.7 118.0,79.6 128.4,76.8 138.8,77.3 149.2,74.4 159.6,74.1 170.0,72.2 180.3,70.2 190.7,70.7 201.1,70.5 211.5,67.9 221.9,65.6 232.2,64.3 242.6,64.5 253.0,63.2" fill="none" stroke="#1f77b4" stroke-width="1.7"/><polyline points="35.0,148.9 45.4,123.3 55.8,128.0 66.1,115.8 76.5,107.4 86.9,115.5 97.3,115.9 107.7,90.4 118.0,88.0 128.4,79.8 138.8,97.4 149.2,76.8 159.6,72.0 170.0,74.5 180.3,73.8 190.7,83.1 201.1,76.6 211.5,88.5 221.9,74.9 232.2,76.6 242.6,77.4 253.0,75.9" fill="none" stroke="#ff7f0e" stroke-width="1.7"/><text x="31.0" y="122.5" text-anchor="end" font-family="Arial" font-size="10">Acc</text><rect x="35.0" y="225" width="218.0" height="145" fill="none" stroke="#ddd"/><polyline points="35.0,253.0 45.4,275.9 55.8,288.0 66.1,303.7 76.5,308.8 86.9,314.7 97.3,323.4 107.7,326.3 118.0,329.8 128.4,332.4 138.8,332.6 149.2,336.5 159.6,335.5 170.0,338.3 180.3,341.9 190.7,340.6 201.1,341.7 211.5,345.0 221.9,348.3 232.2,349.7 242.6,349.7 253.0,351.8" fill="none" stroke="#1f77b4" stroke-width="1.7"/><polyline points="35.0,231.9 45.4,284.3 55.8,282.1 66.1,281.1 76.5,295.2 86.9,284.8 97.3,294.2 107.7,312.7 118.0,318.6 128.4,324.2 138.8,307.1 149.2,323.8 159.6,333.0 170.0,332.8 180.3,333.2 190.7,319.6 201.1,323.4 211.5,309.6 221.9,325.8 232.2,320.2 242.6,323.7 253.0,325.3" fill="none" stroke="#ff7f0e" stroke-width="1.7"/><text x="31.0" y="297.5" text-anchor="end" font-family="Arial" font-size="10">Loss</text><text x="372.0" y="42" text-anchor="middle" font-family="Arial" font-size="12" font-weight="bold">Seed 123</text><rect x="263.0" y="50" width="218.0" height="145" fill="none" stroke="#ddd"/><polyline points="263.0,162.7 273.4,134.5 283.8,109.4 294.1,101.1 304.5,89.4 314.9,84.6 325.3,80.7 335.7,78.9 346.0,75.4 356.4,73.3 366.8,71.0 377.2,70.5 387.6,66.4 398.0,65.3 408.3,63.8 418.7,63.4 429.1,63.3 439.5,62.3 449.9,62.3 460.2,61.9 470.6,62.3 481.0,61.8" fill="none" stroke="#1f77b4" stroke-width="1.7"/><polyline points="263.0,149.7 273.4,133.4 283.8,124.7 294.1,113.2 304.5,94.9 314.9,93.2 325.3,91.4 335.7,77.5 346.0,74.6 356.4,72.8 366.8,75.6 377.2,71.0 387.6,74.0 398.0,71.9 408.3,69.9 418.7,71.3 429.1,70.3 439.5,70.1 449.9,69.9 460.2,71.1 470.6,71.1 481.0,70.4" fill="none" stroke="#ff7f0e" stroke-width="1.7"/><rect x="263.0" y="225" width="218.0" height="145" fill="none" stroke="#ddd"/><polyline points="263.0,231.9 273.4,257.8 283.8,286.6 294.1,297.5 304.5,311.6 314.9,318.4 325.3,324.6 335.7,326.0 346.0,329.9 356.4,333.4 366.8,336.7 377.2,337.5 387.6,343.9 398.0,345.8 408.3,348.3 418.7,349.2 429.1,349.0 439.5,349.8 449.9,349.9 460.2,350.6 470.6,351.1 481.0,351.4" fill="none" stroke="#1f77b4" stroke-width="1.7"/><polyline points="263.0,238.9 273.4,271.5 283.8,272.0 294.1,276.8 304.5,304.1 314.9,305.2 325.3,307.6 335.7,319.7 346.0,320.9 356.4,329.6 366.8,327.8 377.2,329.3 387.6,329.5 398.0,330.1 408.3,333.6 418.7,333.7 429.1,336.1 439.5,334.4 449.9,333.7 460.2,333.2 470.6,334.7 481.0,334.1" fill="none" stroke="#ff7f0e" stroke-width="1.7"/><text x="600.0" y="42" text-anchor="middle" font-family="Arial" font-size="12" font-weight="bold">Seed 2026</text><rect x="491.0" y="50" width="218.0" height="145" fill="none" stroke="#ddd"/><polyline points="491.0,162.4 501.4,131.4 511.8,110.0 522.1,101.7 532.5,90.3 542.9,82.7 553.3,82.3 563.7,78.7 574.0,77.7 584.4,72.8 594.8,71.3 605.2,71.6 615.6,70.2 626.0,68.6 636.3,68.1 646.7,68.5 657.1,67.9 667.5,67.7 677.9,67.6 688.2,66.6 698.6,67.7 709.0,65.8" fill="none" stroke="#1f77b4" stroke-width="1.7"/><polyline points="491.0,148.9 501.4,134.2 511.8,124.6 522.1,107.8 532.5,102.7 542.9,98.6 553.3,87.4 563.7,85.8 574.0,89.5 584.4,82.5 594.8,80.2 605.2,73.3 615.6,78.1 626.0,80.2 636.3,72.4 646.7,71.2 657.1,72.0 667.5,77.6 677.9,74.0 688.2,74.7 698.6,72.2 709.0,74.3" fill="none" stroke="#ff7f0e" stroke-width="1.7"/><rect x="491.0" y="225" width="218.0" height="145" fill="none" stroke="#ddd"/><polyline points="491.0,231.9 501.4,261.3 511.8,285.6 522.1,296.4 532.5,310.5 542.9,320.2 553.3,322.2 563.7,326.2 574.0,327.7 584.4,335.0 594.8,335.7 605.2,337.2 615.6,338.1 626.0,341.2 636.3,341.5 646.7,342.0 657.1,342.1 667.5,342.5 677.9,343.0 688.2,343.5 698.6,343.3 709.0,344.2" fill="none" stroke="#1f77b4" stroke-width="1.7"/><polyline points="491.0,241.2 501.4,260.5 511.8,275.5 522.1,294.4 532.5,305.4 542.9,305.5 553.3,316.3 563.7,310.7 574.0,310.9 584.4,319.3 594.8,323.1 605.2,326.7 615.6,324.2 626.0,321.4 636.3,328.5 646.7,331.6 657.1,330.0 667.5,324.6 677.9,328.8 688.2,327.8 698.6,328.9 709.0,327.8" fill="none" stroke="#ff7f0e" stroke-width="1.7"/><text x="828.0" y="42" text-anchor="middle" font-family="Arial" font-size="12" font-weight="bold">Seed 3407</text><rect x="719.0" y="50" width="218.0" height="145" fill="none" stroke="#ddd"/><polyline points="719.0,160.7 729.4,118.6 739.8,102.4 750.1,92.1 760.5,83.4 770.9,81.1 781.3,76.6 791.7,75.1 802.0,73.3 812.4,69.0 822.8,66.7 833.2,66.2 843.6,66.6 854.0,66.2 864.3,65.8 874.7,63.7 885.1,62.2 895.5,62.4 905.9,62.5 916.2,62.1 926.6,62.1 937.0,62.3" fill="none" stroke="#1f77b4" stroke-width="1.7"/><polyline points="719.0,154.7 729.4,131.4 739.8,109.3 750.1,97.1 760.5,90.4 770.9,95.6 781.3,83.7 791.7,83.2 802.0,82.0 812.4,74.6 822.8,76.2 833.2,74.4 843.6,76.0 854.0,75.9 864.3,74.1 874.7,76.6 885.1,78.9 895.5,74.5 905.9,76.0 916.2,74.7 926.6,75.1 937.0,75.3" fill="none" stroke="#ff7f0e" stroke-width="1.7"/><rect x="719.0" y="225" width="218.0" height="145" fill="none" stroke="#ddd"/><polyline points="719.0,231.9 729.4,276.3 739.8,295.1 750.1,309.0 760.5,318.7 770.9,323.8 781.3,328.1 791.7,331.1 802.0,333.0 812.4,340.4 822.8,342.5 833.2,343.6 843.6,343.5 854.0,344.8 864.3,345.0 874.7,347.2 885.1,349.8 895.5,349.1 905.9,349.5 916.2,350.3 926.6,350.8 937.0,350.0" fill="none" stroke="#1f77b4" stroke-width="1.7"/><polyline points="719.0,251.8 729.4,253.3 739.8,293.8 750.1,306.9 760.5,312.0 770.9,307.5 781.3,323.8 791.7,320.2 802.0,314.1 812.4,328.2 822.8,328.1 833.2,329.7 843.6,328.3 854.0,328.6 864.3,325.7 874.7,327.3 885.1,325.7 895.5,329.0 905.9,329.5 916.2,331.5 926.6,329.2 937.0,331.1" fill="none" stroke="#ff7f0e" stroke-width="1.7"/><text x="1056.0" y="42" text-anchor="middle" font-family="Arial" font-size="12" font-weight="bold">Seed 7777</text><rect x="947.0" y="50" width="218.0" height="145" fill="none" stroke="#ddd"/><polyline points="947.0,160.7 957.4,133.8 967.8,111.9 978.1,101.5 988.5,89.3 998.9,85.7 1009.3,80.4 1019.7,78.7 1030.0,76.4 1040.4,75.2 1050.8,72.9 1061.2,71.5 1071.6,70.4 1082.0,70.1 1092.3,69.1 1102.7,67.8 1113.1,67.4 1123.5,66.7 1133.9,67.2 1144.2,62.4 1154.6,62.1 1165.0,60.2" fill="none" stroke="#1f77b4" stroke-width="1.7"/><polyline points="947.0,146.3 957.4,143.4 967.8,122.0 978.1,115.4 988.5,98.5 998.9,96.5 1009.3,86.3 1019.7,82.5 1030.0,111.7 1040.4,77.7 1050.8,76.6 1061.2,76.0 1071.6,82.7 1082.0,72.5 1092.3,72.0 1102.7,76.7 1113.1,85.1 1123.5,70.3 1133.9,74.0 1144.2,70.1 1154.6,70.9 1165.0,71.1" fill="none" stroke="#ff7f0e" stroke-width="1.7"/><rect x="947.0" y="225" width="218.0" height="145" fill="none" stroke="#ddd"/><polyline points="947.0,231.9 957.4,259.5 967.8,284.4 978.1,296.6 988.5,311.9 998.9,317.2 1009.3,323.3 1019.7,326.8 1030.0,329.7 1040.4,330.6 1050.8,334.2 1061.2,335.8 1071.6,338.8 1082.0,338.3 1092.3,340.7 1102.7,341.5 1113.1,342.5 1123.5,344.3 1133.9,343.1 1144.2,350.6 1154.6,351.1 1165.0,353.5" fill="none" stroke="#1f77b4" stroke-width="1.7"/><polyline points="947.0,242.3 957.4,258.2 967.8,269.2 978.1,286.2 988.5,298.4 998.9,303.9 1009.3,316.6 1019.7,320.4 1030.0,275.1 1040.4,323.4 1050.8,323.3 1061.2,323.5 1071.6,320.4 1082.0,324.9 1092.3,328.9 1102.7,317.5 1113.1,311.4 1123.5,325.7 1133.9,326.3 1144.2,327.2 1154.6,328.1 1165.0,327.4" fill="none" stroke="#ff7f0e" stroke-width="1.7"/><text x="555.0" y="412" font-family="Arial" font-size="10" fill="#1f77b4">Train</text><text x="615.0" y="412" font-family="Arial" font-size="10" fill="#ff7f0e">Validation</text></svg>