<svg xmlns="http://www.w3.org/2000/svg" width="1000" height="430" viewBox="0 0 1000 430">
  <rect width="1000" height="430" fill="white"/>
  <text x="500" y="32" text-anchor="middle" font-size="22" font-weight="700">ResNet50 V04 - Per-class Test F1 (5-seed mean)</text>
  <line x1="95" y1="355" x2="950" y2="355" stroke="#555"/>
  <line x1="95" y1="60" x2="95" y2="355" stroke="#555"/>
  <text x="70" y="360" text-anchor="end" font-size="12">70%</text>
  <text x="70" y="262" text-anchor="end" font-size="12">80%</text>
  <text x="70" y="164" text-anchor="end" font-size="12">90%</text>
  <text x="70" y="66" text-anchor="end" font-size="12">100%</text>
  <line x1="95" y1="257" x2="950" y2="257" stroke="#ddd"/>
  <line x1="95" y1="159" x2="950" y2="159" stroke="#ddd"/>
  <line x1="95" y1="61" x2="950" y2="61" stroke="#ddd"/>

  <rect x="135" y="263" width="110" height="92" fill="#6f9fd1"/><text x="190" y="252" text-anchor="middle" font-size="13" font-weight="700">79.35 ± 3.84%</text><text x="190" y="383" text-anchor="middle" font-size="12">Anthracnose</text>
  <rect x="305" y="152" width="110" height="203" fill="#6f9fd1"/><text x="360" y="141" text-anchor="middle" font-size="13" font-weight="700">90.69 ± 2.05%</text><text x="360" y="383" text-anchor="middle" font-size="12">Healthy</text>
  <rect x="475" y="151" width="110" height="204" fill="#6f9fd1"/><text x="530" y="140" text-anchor="middle" font-size="13" font-weight="700">90.75 ± 1.06%</text><text x="530" y="383" text-anchor="middle" font-size="12">Leaf Miner</text>
  <rect x="645" y="118" width="110" height="237" fill="#6f9fd1"/><text x="700" y="107" text-anchor="middle" font-size="13" font-weight="700">94.06 ± 2.48%</text><text x="700" y="383" text-anchor="middle" font-size="12">Not Cashew</text>
  <rect x="815" y="99" width="110" height="256" fill="#6f9fd1"/><text x="870" y="88" text-anchor="middle" font-size="13" font-weight="700">95.99 ± 1.56%</text><text x="870" y="383" text-anchor="middle" font-size="12">Red Rust</text>
</svg>
